<?xml version="1.0" encoding="UTF-8"?>
<svg xmlns="http://www.w3.org/2000/svg" id="a" width="865.76" height="682.89" viewBox="0 0 865.76 682.89">
  <g>
    <g>
      <path d="M717.33,287.28h40.54c2.51,0,4.55,2.04,4.55,4.55v67.37h-45.09v-71.92h0Z" fill="#e6e7e8"></path>
      <path d="M762.92,359.7h-46.09v-72.92h41.04c2.78,0,5.05,2.27,5.05,5.05v67.87Zm-45.09-1h44.09v-66.87c0-2.23-1.82-4.05-4.05-4.05h-40.04v70.92Z" fill="#002346"></path>
    </g>
    <g>
      <path d="M711.97,287.28h40.53c2.51,0,4.55,2.04,4.55,4.55v67.37h-45.08v-71.92h0Z" fill="#fff"></path>
      <path d="M757.55,359.7h-46.08v-72.92h41.03c2.78,0,5.05,2.27,5.05,5.05v67.87Zm-45.08-1h44.08v-66.87c0-2.23-1.82-4.05-4.05-4.05h-40.03v70.92Z" fill="#002346"></path>
    </g>
    <g>
      <rect x="128.54" y="221.8" width="463.2" height="348.88" fill="#fff"></rect>
      <path d="M592.24,571.18H128.04V221.3h464.2v349.88Zm-463.2-1h462.2V222.3H129.04v347.88Z" fill="#002346"></path>
    </g>
    <g>
      <rect x="132.3" y="221.8" width="459.44" height="35.42" fill="#e6e7e8"></rect>
      <path d="M592.24,257.72H131.8v-36.42h460.44v36.42Zm-459.44-1h458.44v-34.42H132.8v34.42Z" fill="#002346"></path>
    </g>
    <g>
      <rect x="152.69" y="274.4" width="104.13" height="104.13" rx="6.58" ry="6.58" fill="#314152"></rect>
      <path d="M250.24,379.03h-90.97c-3.9,0-7.08-3.17-7.08-7.08v-90.97c0-3.9,3.17-7.08,7.08-7.08h90.97c3.9,0,7.08,3.17,7.08,7.08v90.97c0,3.9-3.17,7.08-7.08,7.08Zm-90.97-104.13c-3.35,0-6.08,2.73-6.08,6.08v90.97c0,3.35,2.73,6.08,6.08,6.08h90.97c3.35,0,6.08-2.73,6.08-6.08v-90.97c0-3.35-2.73-6.08-6.08-6.08h-90.97Z" fill="#002346"></path>
    </g>
    <g>
      <rect x="737.73" y="384.96" width="5.37" height="37.57" fill="#fff"></rect>
      <path d="M743.6,423.03h-6.37v-38.57h6.37v38.57Zm-5.37-1h4.37v-36.57h-4.37v36.57Z" fill="#002346"></path>
    </g>
    <g>
      <polygon points="688.76 457.52 688.76 569.78 696.4 569.78 700.8 451.92 688.76 457.52" fill="#fff"></polygon>
      <path d="M696.88,570.28h-8.62v-113.08l13.07-6.08-4.45,119.16Zm-7.62-1h6.66l4.35-116.56-11.01,5.12v111.44Z" fill="#002346"></path>
    </g>
    <g>
      <polygon points="735.58 435.42 735.58 552.42 743.23 552.42 747.39 430.05 735.58 435.42" fill="#fff"></polygon>
      <path d="M743.71,552.92h-8.63v-117.82l12.84-5.84-.03,.81-4.18,122.85Zm-7.63-1h6.67l4.12-121.08-10.78,4.9v116.18Z" fill="#002346"></path>
    </g>
    <g>
      <polygon points="692.1 449.44 757.05 420.39 727.73 415.3 693.88 400.78 692.1 449.44" fill="#fff"></polygon>
      <path d="M691.57,450.22l1.84-50.19,34.47,14.78,30.88,5.36-67.18,30.05Zm2.78-48.7l-1.72,47.13,62.72-28.05-27.82-4.84-33.18-14.23Z" fill="#002346"></path>
    </g>
    <g>
      <path d="M680.01,461.59l77-35.83v-5.37l-64.91,29.05s-7.55,8.26-12.09,12.15Z" fill="#e6e7e8"></path>
      <path d="M676.92,463.58l2.77-2.37c4.46-3.83,11.97-12.02,12.05-12.11l.17-.12,65.61-29.37v6.46l-.29,.13-80.3,37.37Zm15.48-13.73c-.64,.7-5.54,6.01-9.63,9.9l73.74-34.31v-4.28l-64.11,28.69Z" fill="#002346"></path>
    </g>
    <g>
      <rect x="265.41" y="59.7" width="325.8" height="139.55" rx="9.97" ry="9.97" fill="#314152"></rect>
      <path d="M581.24,199.75H275.38c-5.77,0-10.47-4.7-10.47-10.47V69.67c0-5.77,4.7-10.47,10.47-10.47h305.86c5.77,0,10.47,4.7,10.47,10.47v119.61c0,5.77-4.7,10.47-10.47,10.47ZM275.38,60.2c-5.22,0-9.47,4.25-9.47,9.47v119.61c0,5.22,4.25,9.47,9.47,9.47h305.86c5.22,0,9.47-4.25,9.47-9.47V69.67c0-5.22-4.25-9.47-9.47-9.47H275.38Z" fill="#002346"></path>
    </g>
    <g>
      <rect x="477.51" y="169.2" width="65.48" height="16.1" rx="7.5" ry="7.5" fill="#fff"></rect>
      <path d="M535.49,185.8h-50.48c-4.41,0-8-3.59-8-8v-1.1c0-4.41,3.59-8,8-8h50.48c4.41,0,8,3.59,8,8v1.1c0,4.41-3.59,8-8,8Zm-50.48-16.1c-3.86,0-7,3.14-7,7v1.1c0,3.86,3.14,7,7,7h50.48c3.86,0,7-3.14,7-7v-1.1c0-3.86-3.14-7-7-7h-50.48Z" fill="#002346"></path>
    </g>
    <g>
      <rect x="55.01" y="143.43" width="187.86" height="213.62" rx="10.13" ry="10.13" fill="#fc5c7d"></rect>
      <path d="M232.74,357.55H65.14c-5.86,0-10.63-4.77-10.63-10.63V153.56c0-5.86,4.77-10.63,10.63-10.63H232.74c5.86,0,10.63,4.77,10.63,10.63v193.35c0,5.86-4.77,10.63-10.63,10.63ZM65.14,143.93c-5.31,0-9.63,4.32-9.63,9.63v193.35c0,5.31,4.32,9.63,9.63,9.63H232.74c5.31,0,9.63-4.32,9.63-9.63V153.56c0-5.31-4.32-9.63-9.63-9.63H65.14Z" fill="#002346"></path>
    </g>
    <g>
      <path d="M65.14,143.43H232.74c5.6,0,10.13,4.54,10.13,10.13v24.22H55.01v-24.22c0-5.6,4.54-10.13,10.13-10.13Z" fill="#fff"></path>
      <path d="M243.37,178.28H54.51v-24.72c0-5.86,4.77-10.63,10.63-10.63H232.74c5.86,0,10.63,4.77,10.63,10.63v24.72Zm-187.86-1H242.37v-23.72c0-5.31-4.32-9.63-9.63-9.63H65.14c-5.31,0-9.63,4.32-9.63,9.63v23.72Z" fill="#002346"></path>
    </g>
    <g>
      <circle cx="188.65" cy="160.61" r="3.76" fill="#314152"></circle>
      <path d="M188.65,164.87c-2.35,0-4.26-1.91-4.26-4.26s1.91-4.26,4.26-4.26,4.26,1.91,4.26,4.26-1.91,4.26-4.26,4.26Zm0-7.52c-1.8,0-3.26,1.46-3.26,3.26s1.46,3.26,3.26,3.26,3.26-1.46,3.26-3.26-1.46-3.26-3.26-3.26Z" fill="#002346"></path>
    </g>
    <g>
      <circle cx="207.98" cy="160.61" r="3.76" fill="#314152"></circle>
      <path d="M207.98,164.87c-2.35,0-4.26-1.91-4.26-4.26s1.91-4.26,4.26-4.26,4.26,1.91,4.26,4.26-1.91,4.26-4.26,4.26Zm0-7.52c-1.8,0-3.26,1.46-3.26,3.26s1.46,3.26,3.26,3.26,3.26-1.46,3.26-3.26-1.46-3.26-3.26-3.26Z" fill="#002346"></path>
    </g>
    <g>
      <circle cx="227.3" cy="160.61" r="3.76" fill="#314152"></circle>
      <path d="M227.3,164.87c-2.35,0-4.26-1.91-4.26-4.26s1.91-4.26,4.26-4.26,4.26,1.91,4.26,4.26-1.91,4.26-4.26,4.26Zm0-7.52c-1.8,0-3.26,1.46-3.26,3.26s1.46,3.26,3.26,3.26,3.26-1.46,3.26-3.26-1.46-3.26-3.26-3.26Z" fill="#002346"></path>
    </g>
    <g>
      <rect x="107.61" y="263.66" width="78.36" height="16.1" fill="#fff"></rect>
      <path d="M186.47,280.26H107.11v-17.1h79.36v17.1Zm-78.36-1h77.36v-15.1H108.11v15.1Z" fill="#002346"></path>
    </g>
    <g>
      <rect x="280.44" y="274.4" width="66.55" height="17.18" rx="8.59" ry="8.59" fill="#314152"></rect>
      <path d="M338.4,292.08h-49.37c-5.01,0-9.09-4.08-9.09-9.09s4.08-9.09,9.09-9.09h49.37c5.01,0,9.09,4.08,9.09,9.09s-4.08,9.09-9.09,9.09Zm-49.37-17.18c-4.46,0-8.09,3.63-8.09,8.09s3.63,8.09,8.09,8.09h49.37c4.46,0,8.09-3.63,8.09-8.09s-3.63-8.09-8.09-8.09h-49.37Z" fill="#002346"></path>
    </g>
    <g>
      <rect x="280.44" y="363.49" width="154.58" height="15.03" rx="7.51" ry="7.51" fill="#314152"></rect>
      <path d="M427.51,379.02h-139.55c-4.42,0-8.02-3.6-8.02-8.02s3.6-8.01,8.02-8.01h139.55c4.42,0,8.02,3.6,8.02,8.01s-3.6,8.02-8.02,8.02Zm-139.55-15.03c-3.87,0-7.02,3.15-7.02,7.01s3.15,7.02,7.02,7.02h139.55c3.87,0,7.02-3.15,7.02-7.02s-3.15-7.01-7.02-7.01h-139.55Z" fill="#002346"></path>
    </g>
    <g>
      <rect x="280.44" y="411.87" width="5.37" height="5.37" fill="#314152"></rect>
      <path d="M286.31,417.74h-6.37v-6.37h6.37v6.37Zm-5.37-1h4.37v-4.37h-4.37v4.37Z" fill="#002346"></path>
    </g>
    <g>
      <rect x="384.56" y="411.87" width="5.37" height="5.37" fill="#314152"></rect>
      <path d="M390.43,417.74h-6.37v-6.37h6.37v6.37Zm-5.37-1h4.37v-4.37h-4.37v4.37Z" fill="#002346"></path>
    </g>
    <g>
      <rect x="397.44" y="411.87" width="5.37" height="5.37" fill="#e6e7e8"></rect>
      <path d="M403.31,417.74h-6.37v-6.37h6.37v6.37Zm-5.37-1h4.37v-4.37h-4.37v4.37Z" fill="#002346"></path>
    </g>
    <g>
      <rect x="251.45" y="440.74" width="5.37" height="5.37" fill="#314152"></rect>
      <path d="M257.32,446.61h-6.37v-6.37h6.37v6.37Zm-5.37-1h4.37v-4.37h-4.37v4.37Z" fill="#002346"></path>
    </g>
    <g>
      <rect x="264.33" y="440.74" width="5.37" height="5.37" fill="#e6e7e8"></rect>
      <path d="M270.2,446.61h-6.37v-6.37h6.37v6.37Zm-5.37-1h4.37v-4.37h-4.37v4.37Z" fill="#002346"></path>
    </g>
    <g>
      <rect x="314.79" y="466.95" width="5.37" height="5.37" fill="#314152"></rect>
      <path d="M320.66,472.82h-6.37v-6.37h6.37v6.37Zm-5.37-1h4.37v-4.37h-4.37v4.37Z" fill="#002346"></path>
    </g>
    <g>
      <rect x="327.67" y="466.95" width="5.37" height="5.37" fill="#e6e7e8"></rect>
      <path d="M333.54,472.82h-6.37v-6.37h6.37v6.37Zm-5.37-1h4.37v-4.37h-4.37v4.37Z" fill="#002346"></path>
    </g>
    <g>
      <rect x="385.64" y="524.51" width="5.37" height="5.37" fill="#e6e7e8"></rect>
      <path d="M391.51,530.38h-6.37v-6.37h6.37v6.37Zm-5.37-1h4.37v-4.37h-4.37v4.37Z" fill="#002346"></path>
    </g>
    <g>
      <rect x="398.52" y="524.51" width="5.37" height="5.37" fill="#314152"></rect>
      <path d="M404.39,530.38h-6.37v-6.37h6.37v6.37Zm-5.37-1h4.37v-4.37h-4.37v4.37Z" fill="#002346"></path>
    </g>
    <g>
      <rect x="377.05" y="466.95" width="5.37" height="5.37" fill="#e6e7e8"></rect>
      <path d="M382.92,472.82h-6.37v-6.37h6.37v6.37Zm-5.37-1h4.37v-4.37h-4.37v4.37Z" fill="#002346"></path>
    </g>
    <g>
      <rect x="389.93" y="466.95" width="5.37" height="5.37" fill="#314152"></rect>
      <path d="M395.8,472.82h-6.37v-6.37h6.37v6.37Zm-5.37-1h4.37v-4.37h-4.37v4.37Z" fill="#002346"></path>
    </g>
    <g>
      <rect x="231.06" y="496.72" width="5.37" height="5.37" fill="#e6e7e8"></rect>
      <path d="M236.93,502.59h-6.37v-6.37h6.37v6.37Zm-5.37-1h4.37v-4.37h-4.37v4.37Z" fill="#002346"></path>
    </g>
    <g>
      <rect x="243.94" y="496.72" width="5.37" height="5.37" fill="#314152"></rect>
      <path d="M249.81,502.59h-6.37v-6.37h6.37v6.37Zm-5.37-1h4.37v-4.37h-4.37v4.37Z" fill="#002346"></path>
    </g>
    <g>
      <rect x="255.75" y="496.72" width="5.37" height="5.37" fill="#e6e7e8"></rect>
      <path d="M261.62,502.59h-6.37v-6.37h6.37v6.37Zm-5.37-1h4.37v-4.37h-4.37v4.37Z" fill="#002346"></path>
    </g>
    <g>
      <rect x="282.58" y="524.51" width="5.37" height="5.37" fill="#e6e7e8"></rect>
      <path d="M288.45,530.38h-6.37v-6.37h6.37v6.37Zm-5.37-1h4.37v-4.37h-4.37v4.37Z" fill="#002346"></path>
    </g>
    <g>
      <rect x="295.46" y="524.51" width="5.37" height="5.37" fill="#314152"></rect>
      <path d="M301.33,530.38h-6.37v-6.37h6.37v6.37Zm-5.37-1h4.37v-4.37h-4.37v4.37Z" fill="#002346"></path>
    </g>
    <g>
      <rect x="307.27" y="524.51" width="5.37" height="5.37" fill="#e6e7e8"></rect>
      <path d="M313.14,530.38h-6.37v-6.37h6.37v6.37Zm-5.37-1h4.37v-4.37h-4.37v4.37Z" fill="#002346"></path>
    </g>
    <g>
      <rect x="268.63" y="496.72" width="5.37" height="5.37" fill="#314152"></rect>
      <path d="M274.5,502.59h-6.37v-6.37h6.37v6.37Zm-5.37-1h4.37v-4.37h-4.37v4.37Z" fill="#002346"></path>
    </g>
    <g>
      <rect x="283.66" y="496.72" width="5.37" height="5.37" fill="#e6e7e8"></rect>
      <path d="M289.53,502.59h-6.37v-6.37h6.37v6.37Zm-5.37-1h4.37v-4.37h-4.37v4.37Z" fill="#002346"></path>
    </g>
    <g>
      <rect x="295.46" y="496.72" width="5.37" height="5.37" fill="#314152"></rect>
      <path d="M301.33,502.59h-6.37v-6.37h6.37v6.37Zm-5.37-1h4.37v-4.37h-4.37v4.37Z" fill="#002346"></path>
    </g>
    <g>
      <rect x="380.46" y="496.72" width="5.37" height="5.37" fill="#314152"></rect>
      <path d="M386.33,502.59h-6.37v-6.37h6.37v6.37Zm-5.37-1h4.37v-4.37h-4.37v4.37Z" fill="#002346"></path>
    </g>
    <g>
      <rect x="308.35" y="496.72" width="5.37" height="5.37" fill="#e6e7e8"></rect>
      <path d="M314.22,502.59h-6.37v-6.37h6.37v6.37Zm-5.37-1h4.37v-4.37h-4.37v4.37Z" fill="#002346"></path>
    </g>
    <g>
      <rect x="354.5" y="440.74" width="5.37" height="5.37" fill="#314152"></rect>
      <path d="M360.37,446.61h-6.37v-6.37h6.37v6.37Zm-5.37-1h4.37v-4.37h-4.37v4.37Z" fill="#002346"></path>
    </g>
    <g>
      <rect x="367.39" y="440.74" width="5.37" height="5.37" fill="#e6e7e8"></rect>
      <path d="M373.26,446.61h-6.37v-6.37h6.37v6.37Zm-5.37-1h4.37v-4.37h-4.37v4.37Z" fill="#002346"></path>
    </g>
    <g>
      <rect x="458.63" y="382.82" width="11.81" height="208.25" fill="#fff"></rect>
      <path d="M470.94,591.57h-12.81v-209.25h12.81v209.25Zm-11.81-1h10.81v-207.25h-10.81v207.25Z" fill="#002346"></path>
    </g>
    <g>
      <rect x="495.13" y="383.35" width="11.81" height="172.29" fill="#fff"></rect>
      <path d="M507.44,556.14h-12.81v-173.29h12.81v173.29Zm-11.81-1h10.81v-171.29h-10.81v171.29Z" fill="#002346"></path>
    </g>
    <g>
      <rect x="752.76" y="382.82" width="11.81" height="208.25" fill="#fff"></rect>
      <path d="M765.07,591.57h-12.81v-209.25h12.81v209.25Zm-11.81-1h10.81v-207.25h-10.81v207.25Z" fill="#002346"></path>
    </g>
    <g>
      <rect x="782.82" y="369.4" width="11.81" height="186.25" fill="#fff"></rect>
      <path d="M795.13,556.15h-12.81v-187.25h12.81v187.25Zm-11.81-1h10.81v-185.25h-10.81v185.25Z" fill="#002346"></path>
    </g>
    <g>
      <path d="M446.29,379.33l54.85-27.62h309.45c.05,0,.07,.07,.03,.1l-36.39,27.79H446.35c-.15,0-.2-.2-.06-.27Z" fill="#fff"></path>
      <path d="M774.4,380.1H446.35c-.3,0-.56-.2-.62-.5-.07-.29,.07-.59,.34-.72l54.96-27.67h309.92l.17,.38c.08,.22,0,.47-.19,.62l-36.53,27.9Zm-326.55-1h326.21l35.21-26.89H501.26l-53.4,26.89Z" fill="#002346"></path>
    </g>
    <g>
      <path d="M565.98,574.97l-30.87,24.15c-1.91,1.49-3.64,3.2-5.06,5.16-3.05,4.2-5.98,10.95,1.58,15.78,0,0,17.17,10.74,31.13-7.51l19.37-31.64-16.15-5.93Z" fill="#314152"></path>
      <path d="M543.46,623.64c-6.89,0-12-3.1-12.1-3.16-2.76-1.76-4.4-3.93-4.88-6.44-.71-3.74,1.32-7.53,3.15-10.05,1.37-1.88,3.1-3.65,5.16-5.26l31.09-24.32,16.98,6.24-19.69,32.16c-6.53,8.53-13.79,10.84-19.73,10.84Zm22.61-48.1l-30.65,23.97c-1.98,1.55-3.65,3.25-4.96,5.06-1.71,2.36-3.62,5.88-2.98,9.27,.42,2.23,1.91,4.18,4.43,5.79,.68,.43,16.95,10.27,30.46-7.39l19.02-31.08-15.32-5.62Z" fill="#002346"></path>
    </g>
    <g>
      <path d="M574.03,559.4l-8,15.57s-3.32,4,1.25,6.48c1.25,.67,2.64,1.01,4.06,1h7.9c1.17,0,2.26-.56,2.94-1.51l9.69-13.67s-13.59-5.23-17.84-7.87Z" fill="#f2b3c1"></path>
      <path d="M571.29,582.94c-1.47,0-2.93-.37-4.24-1.06-1.49-.81-2.36-1.86-2.61-3.12-.38-1.97,.93-3.75,1.17-4.06l8.22-16,.45,.28c4.16,2.58,17.62,7.78,17.76,7.83l.59,.23-10.06,14.19c-.77,1.08-2.02,1.72-3.34,1.72h-7.96Zm2.94-22.85l-7.82,15.19s-1.32,1.63-1,3.3c.19,.96,.9,1.78,2.11,2.44,1.16,.62,2.46,.94,3.77,.94,.02,0,.03,0,.05,0h7.91c1.01,0,1.95-.49,2.54-1.3l9.32-13.15c-2.59-1.01-12.74-5.01-16.88-7.41Z" fill="#002346"></path>
    </g>
    <g>
      <polygon points="572.19 525.57 575.71 536.2 581.05 521 572.19 525.57" fill="#f2b3c1"></polygon>
      <path d="M575.7,537.72l-4.11-12.4,10.33-5.33-6.23,17.73Zm-2.91-11.91l2.93,8.86,4.45-12.67-7.39,3.81Z" fill="#002346"></path>
    </g>
    <g>
      <path d="M734.64,347.74c0,8.24-5.5,8.24-5.5,8.24l-15,5.37c-6.68,2.23-9.44,1.89-10.5,1.46-.45-.17-.94-.13-1.36,.1-.02,.03-.05,.05-.08,.06-1.16,.81-2.45,1.4-3.82,1.75h0c-2.89,.58-2.48-2.31-2.48-2.31,.1-.51,.16-1.02,.2-1.54,.14-4.01-2.15-7.71-5.8-9.37-1.53-.71-3.13-1.27-4.77-1.68-1.01-.25-2.06-.25-3.07,0l-8.33,1.91h-41.87l-38.39-1.12c-3.57-22.63,.88-45.79,12.58-65.48,2.57-4.41,5.52-8.58,8.82-12.47,.72-.84,1.14-1.27,1.14-1.27l2.37-3.43s32,2.14,32.37,1.07,22.15-14,22.15-14l30.76,13c1.37,.6,2.59,1.48,3.59,2.59,6.62,6.85,11.81,23.17,11.81,23.17l14,46.16c.72,2.54,1.12,5.15,1.18,7.79Z" fill="#314152"></path>
      <path d="M697.66,365.3c-.65,0-1.17-.19-1.56-.56-.9-.85-.71-2.33-.7-2.4,.1-.51,.16-1.01,.2-1.5,.13-3.8-2.03-7.3-5.51-8.88-1.5-.7-3.08-1.25-4.68-1.65-.93-.23-1.9-.23-2.83,0l-8.45,1.92h-41.87l-38.82-1.13-.06-.41c-3.58-22.69,.91-46.06,12.64-65.81,2.57-4.42,5.56-8.64,8.87-12.54,.73-.86,1.16-1.29,1.16-1.29l2.48-3.6,.28,.02c11.58,.78,30.42,1.78,32.01,1.2,1.53-1.66,14.42-9.43,22.23-14.06l.22-.13,.23,.1,30.76,13c1.44,.64,2.71,1.55,3.77,2.71,6.61,6.84,11.7,22.68,11.92,23.35l14,46.17c.74,2.58,1.14,5.25,1.2,7.92h0c0,8.03-5.12,8.69-5.9,8.75l-14.93,5.35c-6.55,2.19-9.52,2-10.86,1.45-.27-.1-.58-.09-.86,.04h0s-.18,.12-.18,.12c-1.13,.8-2.47,1.41-3.9,1.78-.3,.06-.58,.09-.84,.09Zm-13.67-16.16c.56,0,1.11,.07,1.66,.2,1.67,.41,3.3,.99,4.86,1.71,3.85,1.75,6.24,5.61,6.09,9.84-.04,.55-.11,1.09-.21,1.62-.03,.26-.04,1.09,.4,1.51,.3,.28,.8,.36,1.49,.22,1.29-.33,2.52-.89,3.63-1.67l.12-.09c.55-.3,1.19-.35,1.78-.13,.79,.32,3.34,.81,10.16-1.47l15.16-5.4c.2,0,5-.13,5-7.73-.06-2.59-.45-5.17-1.16-7.66l-14-46.15c-.05-.16-5.23-16.28-11.69-22.97-.97-1.07-2.12-1.9-3.43-2.48l-30.52-12.9c-8.12,4.83-21.03,12.7-21.75,13.67-.11,.36-.46,1.36-32.56-.79l-2.21,3.2c-.06,.07-.47,.49-1.17,1.31-3.27,3.85-6.22,8.02-8.77,12.4-11.54,19.43-16.01,42.41-12.58,64.74l37.97,1.11h41.8l8.27-1.9c.54-.13,1.09-.2,1.64-.2Zm-33.19-80.45s-.09,.09-.13,.18c.02-.05,.06-.11,.13-.18Z" fill="#002346"></path>
    </g>
    <g>
      <path d="M699.67,320.34s-30.74,5-53.75,.22c-.59-.12-1.17-.27-1.75-.43-9.04-2.38-18.4-3.32-27.74-2.79l-22.06-.18-1.09,7.3h36.87s12,.39,21.7,3.61c0,0,9.66,3.22,29,1.07l21.82-2.66-3-6.14Z" fill="#fc5c7d"></path>
      <path d="M668.06,330.39c-10.68,0-16.08-1.74-16.37-1.84-9.52-3.16-21.44-3.58-21.56-3.58h-37.43l1.24-8.3,22.49,.18c9.37-.54,18.76,.41,27.86,2.81,.57,.16,1.14,.31,1.72,.42,22.65,4.71,53.26-.17,53.57-.22l.37-.06,3.47,7.1-22.52,2.75c-4.91,.55-9.19,.75-12.85,.75Zm-74.2-6.43h36.29c.14,0,12.2,.43,21.86,3.64,.1,.03,9.81,3.15,28.79,1.05l21.12-2.57-2.53-5.18c-3.56,.54-32.08,4.62-53.56,.16-.6-.12-1.19-.27-1.78-.44-9-2.37-18.28-3.31-27.58-2.77l-21.66-.17-.94,6.3Z" fill="#002346"></path>
    </g>
    <path d="M663.13,233.99c-1.13,0-1.98-1.54-1.98-3.59s.85-3.6,1.98-3.6,1.98,1.55,1.98,3.6-.85,3.59-1.98,3.59Zm0-6.44c-.58,0-1.23,1.22-1.23,2.85s.65,2.84,1.23,2.84,1.23-1.22,1.23-2.84-.65-2.85-1.23-2.85Z" fill="red"></path>
    <path d="M641.48,275.87c-5.8-3.27-12.08-5.45-18.66-6.47l.12-.74c6.67,1.03,13.04,3.24,18.92,6.55l-.37,.65Z" fill="red"></path>
    <g>
      <path d="M730.21,387.11c0,.17,0,8.76-2.14,25.76l-.34,2.43c-.32,2.41-.5,4.84-.52,7.27-.06,3.84-2.56,11.15-21.3,8.21,.49-.83,.94-1.65,1.36-2.49l.35-.68c1.57-3,3.69-7.58,4.35-11.52,0,0-59-5.36-78.37-12.88,0,0-28.3-11.81-38.84-8.05l-8.39,7s-7.51-2.15,3.22-15l140.62-.05Z" fill="#314152"></path>
      <path d="M713.75,431.96c-2.36,0-5-.23-7.92-.69l-.73-.11,.37-.63c.5-.85,.94-1.65,1.34-2.46l.35-.68c1.54-2.93,3.47-7.13,4.21-10.84-6.01-.57-59.74-5.79-77.96-12.86-.29-.12-28.1-11.64-38.41-8.07l-8.52,7.11-.25-.07c-.08-.02-2.02-.6-2.69-2.8-.93-3.01,.98-7.39,5.67-13l.15-.18,141.35-.05v.5c0,.36-.02,8.98-2.14,25.82l-.34,2.44c-.32,2.38-.49,4.8-.52,7.21-.03,1.8-.56,4.37-2.95,6.38-2.38,2-6.07,3.01-11.01,3.01Zm-7.04-1.57c8.36,1.22,14.21,.48,17.41-2.21,2.1-1.77,2.57-4.03,2.59-5.62,.02-2.44,.2-4.91,.52-7.33l.34-2.43c1.85-14.72,2.1-23.11,2.13-25.19l-139.88,.05c-5.4,6.52-5.88,10.05-5.34,11.87,.39,1.29,1.34,1.86,1.79,2.06l8.32-6.9c10.6-3.78,38.04,7.57,39.2,8.06,19.07,7.41,77.63,12.79,78.22,12.84l.54,.05-.09,.53c-.66,3.96-2.76,8.53-4.4,11.67l-.35,.68c-.31,.62-.64,1.24-1,1.88Z" fill="#002346"></path>
    </g>
    <g>
      <path d="M711.97,416.09s13.8,.92,13.29,7c-.11,1.14-.69,2.17-1.61,2.85-1.84,1.41-6.25,3.29-16.15,1.89,1.88-3.75,3.37-7.69,4.47-11.74Z" fill="#314152"></path>
      <path d="M713.97,428.83c-1.87,0-4.04-.15-6.54-.5l-.69-.1,.31-.62c1.86-3.72,3.35-7.63,4.43-11.65l.11-.4,.41,.03c.39,.03,9.51,.67,12.68,4.36,.81,.95,1.18,2.02,1.08,3.18-.12,1.28-.78,2.45-1.81,3.21-1.61,1.23-4.58,2.49-9.98,2.49Zm-5.71-1.4c9.38,1.22,13.47-.65,15.09-1.88,.81-.6,1.32-1.51,1.42-2.5,.08-.9-.2-1.7-.84-2.44-2.54-2.96-9.78-3.81-11.58-3.98-1.03,3.71-2.4,7.34-4.09,10.8Z" fill="#002346"></path>
    </g>
    <g opacity=".2">
      <path d="M588.01,400.78s-6.33-4,6.75-5.62l-6.75,5.62Z"></path>
    </g>
    <g>
      <path d="M711.97,416.09c-1,3.99-2.46,7.86-4.35,11.52l-.35,.68c-.23,.43-.44,.81-.63,1.15s-.47,.89-.73,1.34c-13.3,23.42-41.56,44.44-53.06,52.37-3.07,2.11-5.01,5.5-5.27,9.22-2.38,36.84-19.34,68.64-19.34,68.64-3.61,5.17-9,7.66-15,8.46-19.1,2.58-45.12-11.68-45.12-11.68l14-39.72c11.81-44,23.61-56.89,23.61-56.89l26.54-55.12,1.37-2.85c19.29,7.52,78.33,12.88,78.33,12.88Z" fill="#fc5c7d"></path>
      <path d="M608.43,570.28c-18.33,0-40.31-11.92-40.55-12.05l-.37-.2,14.14-40.12c11.3-42.1,22.79-55.99,23.66-57l28.08-58.33,.43,.17c19,7.41,77.6,12.79,78.19,12.85l.58,.05-.14,.57c-1.01,4.02-2.49,7.94-4.39,11.63l-.35,.68c-.23,.44-.45,.82-.64,1.17-.08,.14-.17,.3-.26,.49-.15,.28-.31,.58-.47,.86-13.34,23.5-41.66,44.56-53.21,52.53-2.97,2.03-4.81,5.26-5.05,8.84-2.36,36.52-19.23,68.52-19.4,68.84-3.41,4.9-8.58,7.81-15.38,8.72-1.58,.21-3.22,.31-4.88,.31Zm-39.69-12.73c3.25,1.71,26.96,13.79,44.44,11.42,6.51-.87,11.44-3.65,14.66-8.25,.14-.27,16.91-32.08,19.25-68.39,.27-3.9,2.27-7.39,5.49-9.6,11.5-7.93,39.67-28.89,52.91-52.21,.15-.27,.31-.56,.45-.83,.1-.19,.19-.37,.27-.51,.19-.34,.4-.72,.62-1.14l.35-.67c1.78-3.45,3.18-7.1,4.16-10.85-6.17-.58-58.94-5.72-77.45-12.69l-1.17,2.44-26.57,55.19-.05,.05c-.12,.13-11.87,13.36-23.5,56.68l-13.87,39.35Z" fill="#002346"></path>
    </g>
    <g>
      <path d="M613.24,445.51l-31.35,12.72c-1.06,.43-1.53,1.67-1.01,2.69l12.05,24.11s-5.54,16.19-11.4,35.76c0,0-13.42,9.12-27.37,8.05,0,0-11.81-30.06-18.25-61.19,0,0-4.72-21.09,6.44-30.06l43.52-35.2,8.93-7.23s6.64-4.83,38.84,8.05l-20.4,42.3Z" fill="#fc5c7d"></path>
      <path d="M556.44,529.43c-.77,0-1.54-.03-2.32-.09l-.31-.02-.11-.29c-.12-.3-11.9-30.46-18.27-61.27-.19-.87-4.66-21.49,6.62-30.55l52.45-42.43c.3-.22,7.25-4.86,39.34,7.97l.5,.2-20.72,42.96-31.53,12.8c-.38,.15-.67,.45-.81,.83-.15,.38-.12,.8,.06,1.17l12.15,24.29-.07,.2c-.06,.16-5.6,16.41-11.39,35.74l-.05,.17-.15,.1c-.13,.09-12.26,8.22-25.37,8.22Zm-1.93-1.06c12.72,.85,25.11-6.93,26.59-7.89,5.43-18.12,10.64-33.5,11.29-35.41l-11.96-23.92c-.31-.61-.34-1.33-.1-1.97,.24-.64,.74-1.15,1.37-1.41l31.17-12.65,20.08-41.64c-30.88-12.27-37.8-7.95-37.87-7.91l-52.42,42.41c-10.79,8.67-6.31,29.35-6.27,29.56,6.02,29.11,16.88,57.63,18.11,60.82Z" fill="#002346"></path>
    </g>
    <g>
      <path d="M571.49,548.22l-21.27,16.42c-2.07,1.63-4.36,2.95-6.81,3.93-3.21,1.25-7.85,4-6.84,9.17,.57,2.75,2.47,5.03,5.07,6.09,2.55,1.06,6.59,1.78,12.53,.37l11.81-9.23,7.47-14.54-5.33-2.64,3.37-9.57Z" fill="#314152"></path>
      <path d="M547.98,585.48c-2.9,0-5.05-.57-6.53-1.19-2.75-1.13-4.76-3.54-5.37-6.45-1.1-5.62,4.01-8.52,7.15-9.74,2.4-.96,4.65-2.26,6.68-3.86l22.61-17.46-3.79,10.75,5.39,2.67-7.84,15.16-12,9.32c-2.4,.57-4.5,.79-6.3,.79Zm22.47-35.83l-19.93,15.39c-2.11,1.66-4.44,3-6.93,4-3.49,1.36-7.44,3.95-6.53,8.61,.54,2.58,2.32,4.72,4.77,5.72,2.26,.94,6.18,1.76,12.12,.37l11.64-9.09,7.19-13.99-5.27-2.61,2.96-8.39Z" fill="#002346"></path>
    </g>
    <g>
      <rect x="445.75" y="379.6" width="328.48" height="7.51" fill="#e6e7e8"></rect>
      <path d="M774.73,387.61H445.25v-8.51h329.48v8.51Zm-328.48-1h327.48v-6.51H446.25v6.51Z" fill="#002346"></path>
    </g>
    <g>
      <path d="M774.23,379.6v7.49s.01,.01,.02,0l36.48-28.97,.02-5.98c0-.18-.2-.28-.35-.17l-36.17,27.62Z" fill="#e6e7e8"></path>
      <path d="M774.31,387.69l-.57-.29v-.31s0-7.73,0-7.73l.2-.15,36.17-27.62c.22-.17,.51-.19,.75-.07s.4,.37,.4,.64l-.02,6.22-36.92,29.32Zm.42-7.84v6.23l35.5-28.19,.02-5.16-35.52,27.12Z" fill="#002346"></path>
    </g>
    <g>
      <path d="M531.63,360.27h98.07l-7.33-63.74c-.31-2.84-2.71-5-5.57-5h-90c-1.66,.03-2.98,1.4-2.95,3.05,0,.09,0,.17,.02,.26l7.76,65.43Z" fill="#fc5c7d"></path>
      <path d="M630.26,360.77h-99.07l-7.81-65.87c-.01-.1-.02-.21-.02-.31-.02-.93,.33-1.82,.98-2.49s1.52-1.05,2.46-1.07h90.01c3.12,0,5.73,2.34,6.07,5.45l7.39,64.29Zm-98.19-1h97.06l-7.27-63.18c-.28-2.6-2.47-4.55-5.07-4.56h-90c-.66,.01-1.28,.28-1.75,.76-.46,.48-.71,1.11-.7,1.78,0,.07,0,.14,.01,.21l7.71,64.99Z" fill="#002346"></path>
    </g>
    <g>
      <rect x="531.63" y="360.27" width="94.46" height="6.44" fill="#fff"></rect>
      <path d="M626.59,367.21h-95.46v-7.44h95.46v7.44Zm-94.46-1h93.46v-5.44h-93.46v5.44Z" fill="#002346"></path>
    </g>
    <g>
      <rect x="626.09" y="360.27" width="29.49" height="6.44" fill="#fc5c7d"></rect>
      <path d="M656.08,367.21h-30.49v-7.44h30.49v7.44Zm-29.49-1h28.49v-5.44h-28.49v5.44Z" fill="#002346"></path>
    </g>
    <g>
      <rect x="443.6" y="368.86" width="46.65" height="4.65" fill="#e6e7e8"></rect>
      <path d="M490.75,374.01h-47.65v-5.65h47.65v5.65Zm-46.65-1h45.65v-3.65h-45.65v3.65Z" fill="#002346"></path>
    </g>
    <polygon points="523.84 349.28 523.84 355.14 490.25 373.51 490.25 368.86 523.84 349.28" fill="#ccc"></polygon>
    <g>
      <polygon points="523.84 349.28 523.84 355.14 490.25 373.51 490.25 368.86 523.84 349.28" fill="#e6e7e8"></polygon>
      <path d="M489.75,374.35v-5.78l34.59-20.16v7.03l-.26,.14-34.33,18.77Zm1-5.21v3.52l32.59-17.82v-4.69l-32.59,19Z" fill="#002346"></path>
    </g>
    <g>
      <path d="M682.43,349.8s-13.47,1.87-20.95,12.08c0,0-10.05,9.15-.18,7.53,0,0,.47,4.68,8.39,1.53,0,0,1.37,3.31,10-1.53,0,0,8.64-4.84,16.16-7,.02,.01,3.19-12.36-13.42-12.61Z" fill="#f2b3c1"></path>
      <path d="M672.21,372.54c-.56,0-1.07-.08-1.52-.23-.6-.21-.97-.52-1.19-.77-3.12,1.18-5.5,1.3-7.06,.35-.95-.58-1.35-1.4-1.52-1.92-2.4,.33-3.81,.01-4.29-.98-1.07-2.22,3.57-6.61,4.52-7.46,7.45-10.19,21.08-12.18,21.21-12.2h.04s.04,0,.04,0c9.02,.14,12.32,3.85,13.49,6.95,1.14,3,.54,6.26,.26,6.52l-.08,.08-.11,.03c-7.38,2.12-15.97,6.91-16.06,6.96-3.21,1.8-5.79,2.7-7.72,2.7Zm-2.25-2.24l.19,.45s.21,.42,.93,.65c.97,.31,3.34,.4,8.38-2.42,.09-.05,8.56-4.77,15.99-6.96,.18-.94,.67-4.46-1.5-7.38-2.07-2.79-5.93-4.26-11.48-4.35-.77,.12-13.51,2.21-20.59,11.88-2.18,2-4.91,5.23-4.36,6.38,.13,.27,.76,.86,3.7,.37l.52-.08,.05,.52s.13,1.07,1.18,1.7c.93,.56,2.82,.91,6.54-.57l.45-.18Z" fill="#002346"></path>
    </g>
    <g>
      <path d="M664.74,244.23s12.2-4.93,24.24-3.72c6.73,.73,12.93,4.01,17.33,9.17,4.85,5.6,11.54,15.1,4.38,18.3-2.36,.98-5.03,.86-7.29-.33-5-2.49-17.91-6.91-47.79,12.65l27.37-23.08s6.49-6.48-3.5-8.53c-.86-.17-1.74-.25-2.62-.25-3.37,.06-6.72,.48-10,1.27,0,0-2.12-3.44-2.12-5.48Z" fill="#fff"></path>
      <path d="M655.88,280.72l-.6-.8,27.37-23.08h0s2.43-2.47,1.79-4.61c-.43-1.42-2.13-2.45-5.07-3.05-.82-.16-1.63-.25-2.52-.24-3.32,.06-6.65,.48-9.88,1.26l-.35,.08-.19-.31c-.09-.15-2.19-3.58-2.19-5.74v-.34l.31-.13c.12-.05,12.45-4.97,24.48-3.75,6.89,.75,13.16,4.07,17.66,9.34,3.96,4.57,8.47,10.95,7.5,15.35-.37,1.66-1.48,2.92-3.29,3.73-2.52,1.04-5.33,.92-7.73-.34-10.55-5.25-26.46-1.01-47.28,12.62Zm21-32.78c.91,0,1.81,.09,2.69,.26,3.33,.68,5.29,1.94,5.83,3.74,.81,2.71-1.95,5.51-2.07,5.63l-22.03,18.58c18.25-10.84,32.47-13.86,42.32-8.95,2.14,1.13,4.65,1.24,6.88,.32,1.52-.68,2.41-1.67,2.71-3.03,.69-3.12-1.89-8.26-7.28-14.48-4.33-5.08-10.37-8.28-17.01-9-10.68-1.07-21.64,2.8-23.67,3.56,.17,1.54,1.38,3.76,1.84,4.57,3.19-.74,6.47-1.14,9.75-1.2h.03Z" fill="#002346"></path>
    </g>
    <g opacity=".3">
      <path d="M698.01,249.71c-5.73,6.95-13.48,12.06-21.25,16.49-1.15,.58-2.28,1.2-3.44,1.76,8.36-5.92,17-11.41,24.69-18.25Z" fill="#fff"></path>
    </g>
    <g opacity=".3">
      <path d="M707.67,254c-4.8,5.34-11.95,8.18-18.91,9.34,6.47-2.57,13.26-5.24,18.91-9.35h0Z" fill="#fff"></path>
    </g>
    <g>
      <path d="M649.71,280.84c-4.44-2.67-21.36-6.8-27.08-8.15-1.11-.25-2.24-.41-3.37-.5-4.81-.45-3.9-3.16-3.9-3.16,0-4.29,6.63-7.09,6.63-7.09,6,6.11,13.48,9.26,20.74,8l6.98,10.9Z" fill="#fff"></path>
      <path d="M651.28,282.37l-1.83-1.1c-4.41-2.65-21.73-6.86-26.94-8.09-1.08-.24-2.19-.4-3.29-.49-2.03-.19-3.38-.79-4.03-1.79-.54-.83-.4-1.67-.33-1.94,.07-4.53,6.65-7.36,6.94-7.48l.31-.13,.24,.24c6.07,6.18,13.47,9.04,20.3,7.86l.33-.06,8.31,12.98Zm-29.4-19.83c-1.26,.6-6.02,3.08-6.02,6.49l-.03,.16s-.18,.6,.21,1.18c.47,.71,1.6,1.17,3.26,1.32,1.15,.09,2.3,.26,3.43,.51,6.05,1.43,19.68,4.78,25.57,7.37l-5.82-9.09c-6.97,1.08-14.45-1.8-20.61-7.95Z" fill="#002346"></path>
    </g>
    <g>
      <circle cx="575.1" cy="326.46" r="8.05" fill="#fff"></circle>
      <path d="M575.1,335.01c-4.71,0-8.55-3.83-8.55-8.55s3.84-8.55,8.55-8.55,8.55,3.83,8.55,8.55-3.84,8.55-8.55,8.55Zm0-16.1c-4.16,0-7.55,3.39-7.55,7.55s3.39,7.55,7.55,7.55,7.55-3.39,7.55-7.55-3.39-7.55-7.55-7.55Z" fill="#002346"></path>
    </g>
    <g>
      <path d="M682.98,257.22l-26.83,22.77c-4.3,3.45-6.44,.85-6.44,.85l-1.19-1.87-5.79-9c20.4-4.65,18.67-31.41,18.67-31.41h3.34c-.55,3.87,.21,7.81,2.14,11.2,3.91-1.57,9-1.42,11.4-1.23,.98,.07,1.95,.23,2.89,.49,8.63,2.32,1.81,8.2,1.81,8.2Z" fill="#f2b3c1"></path>
      <path d="M652.05,282.26c-1.77,0-2.7-1.09-2.72-1.11l-7.39-11.5,.68-.16c19.75-4.5,18.31-30.64,18.29-30.9l-.03-.52h4.43s-.08,.56-.08,.56c-.51,3.6,.16,7.32,1.88,10.52,3.89-1.42,8.66-1.31,11.22-1.11,1,.07,2.01,.24,2.98,.51,2.72,.73,4.29,1.91,4.65,3.5,.62,2.69-2.52,5.43-2.65,5.54h0s-26.83,22.77-26.83,22.77c-1.81,1.45-3.29,1.89-4.42,1.89Zm-8.53-11.97l6.61,10.29s1.88,2.11,5.72-.97l26.82-22.76c.07-.06,2.81-2.48,2.33-4.58-.28-1.21-1.61-2.14-3.95-2.77-.91-.25-1.85-.41-2.8-.47-2.06-.16-7.27-.37-11.18,1.2l-.4,.16-.21-.37c-1.88-3.3-2.68-7.17-2.27-10.95h-2.27c.1,3.76-.09,26.51-18.39,31.23Z" fill="#002346"></path>
    </g>
    <g>
      <rect x="610.64" y="201.01" width="51.48" height="68.95" rx="25.74" ry="25.74" transform="translate(-41.64 208.67) rotate(-18.04)" fill="#f2b3c1"></rect>
      <path d="M639.06,270.04c-4.08,0-8.13-.96-11.87-2.86-6.25-3.18-10.88-8.59-13.05-15.26l-5.41-16.61c-2.17-6.66-1.62-13.77,1.56-20.02s8.6-10.88,15.26-13.05c6.66-2.17,13.77-1.62,20.02,1.56,6.25,3.18,10.88,8.6,13.05,15.26l5.41,16.61c2.17,6.66,1.62,13.77-1.56,20.02s-8.6,10.88-15.26,13.05c-2.67,.87-5.42,1.3-8.15,1.3Zm-5.35-68.12c-2.63,0-5.27,.42-7.85,1.25-6.41,2.09-11.63,6.55-14.69,12.56-3.06,6.01-3.59,12.85-1.5,19.27l5.41,16.61c2.09,6.41,6.55,11.63,12.56,14.69,6.01,3.06,12.85,3.59,19.27,1.5h0c6.41-2.09,11.63-6.55,14.69-12.56,3.06-6.01,3.59-12.85,1.5-19.27l-5.41-16.61c-2.09-6.41-6.55-11.63-12.56-14.69-3.6-1.83-7.5-2.76-11.42-2.76Z" fill="#002346"></path>
    </g>
    <g>
      <path d="M615.43,179.42c3.71-2.41,8.82-4.56,13.41-2.43,6.4,2.98,13.38,4.24,20.4,3.56,1.43-.14,2.97-.05,4.6,.34h0c.77,.18,1.52,.42,2.25,.72,0,0,2.16,.57,3.99,2.97,3.2,4.17,7.7,7.19,12.89,7.94,2.5,.36,5.2,1.64,7.81,4.57,0,0,6.44,7.89,0,16.28,.08,.02,3.27,7.35-5.32,12.72,0,0,17.18,9.45-10.73,18.14-.33-1.19-.51-2.42-.54-3.65-.04-1.53,.14-3.06,.54-4.54l-8.59-4.36s-4.67,.85-7.17-4.52c0,0-8.93,0-7.86-6.44,0,0-6.44,4.3-8.59-1.07,0,0-9.69,6.88-19.33-4.62,0,0-6.51,8.03-2.51,24.03,0,0-6.83,2.05-10.42-2.65,0,0-15.24-21.86,7.51-49.94,2.2-2.71,4.72-5.16,7.65-7.06Z" fill="#002346"></path>
      <path d="M664.39,244.86l-.14-.5c-.33-1.23-.52-2.5-.56-3.77-.04-1.44,.11-2.89,.46-4.29l-8.1-4.11c-.91,.09-5.02,.22-7.4-4.54-1.15-.05-5.03-.38-7-2.7-.78-.92-1.16-2.03-1.13-3.31-1.24,.66-3.61,1.64-5.66,1-1.11-.34-1.97-1.11-2.56-2.27-2.14,1.21-10.65,5.06-19.07-4.53-1.27,1.97-5.41,9.75-2.07,23.1l.12,.46-.46,.14c-.29,.09-7.2,2.09-10.96-2.83-.17-.24-15.2-22.51,7.52-50.56,2.4-2.97,5.02-5.38,7.76-7.16,3.65-2.37,9.03-4.73,13.9-2.46,6.35,2.96,13.32,4.17,20.15,3.52,1.57-.15,3.18-.03,4.77,.35,.78,.19,1.56,.44,2.32,.74,.04,0,2.28,.63,4.2,3.13,3.3,4.3,7.77,7.06,12.57,7.75,2.97,.43,5.7,2.02,8.11,4.73,.08,.1,6.51,8.16,.21,16.68,.25,.56,.39,1.39,.45,1.73,.39,2.48,.16,7.1-5.41,10.92,1.56,1.02,5.14,3.79,4.77,7.45-.42,4.19-5.9,7.95-16.29,11.18l-.49,.15Zm-8.17-13.7l.15,.07,8.95,4.54-.11,.39c-.39,1.43-.56,2.91-.52,4.4,.03,1.02,.16,2.04,.39,3.03,11.99-3.81,14.83-7.62,15.09-10.17,.4-3.9-4.9-6.87-4.95-6.9l-.75-.41,.72-.45c7.5-4.69,5.63-10.81,5.23-11.87l-.5-.13,.46-.6c6.12-7.97,.26-15.35,0-15.66-2.23-2.51-4.76-3.99-7.49-4.39-5.06-.73-9.75-3.62-13.22-8.13-1.7-2.21-3.71-2.78-3.73-2.79-.77-.31-1.5-.54-2.24-.72-1.49-.36-2.98-.47-4.44-.33-7.01,.67-14.15-.57-20.66-3.61-4.45-2.07-9.49,.16-12.93,2.39-2.66,1.73-5.19,4.07-7.53,6.95-22.23,27.44-7.64,49.12-7.49,49.34,2.8,3.67,7.86,2.91,9.4,2.57-3.77-15.73,2.46-23.65,2.73-23.98l.38-.47,.39,.46c9.22,11,18.28,4.8,18.66,4.53l.52-.37,.24,.59c.48,1.19,1.19,1.92,2.17,2.22,2.43,.76,5.64-1.36,5.68-1.38l.96-.64-.19,1.14c-.23,1.41,.04,2.59,.81,3.5,1.97,2.32,6.51,2.35,6.55,2.35h.32l.13,.29c2.3,4.94,6.45,4.27,6.63,4.24l.16-.03Z" fill="#002346"></path>
    </g>
    <path d="M682.43,350.3c-.16,0-.33-.08-.42-.23-.15-.23-.08-.54,.15-.69l22.23-14.29c.67-.43,.92-1.3,.58-2.03l-11.1-23.29c-.12-.25-.01-.55,.24-.67,.25-.12,.55-.01,.67,.24l11.1,23.29c.56,1.18,.16,2.59-.94,3.3l-22.23,14.29c-.08,.05-.18,.08-.27,.08Z" fill="#002346"></path>
    <path d="M691.19,302.06c-.19,0-.38-.11-.46-.3-.09-.21-8.98-21.55,9.42-29.93,.25-.12,.55,0,.66,.25,.11,.25,0,.55-.25,.66-17.5,7.98-9.27,27.79-8.91,28.63,.11,.25,0,.55-.26,.66-.06,.03-.13,.04-.2,.04Z" fill="#002346"></path>
    <path d="M703.64,363.31c-.27,0-.5-.22-.5-.49,0-.09-.21-9.08-7.28-13.1-.24-.14-.32-.44-.19-.68s.44-.33,.68-.19c7.58,4.31,7.78,13.57,7.79,13.96,0,.28-.22,.5-.49,.51h0Z" fill="#002346"></path>
    <path d="M661.3,369.91c-.14,0-.28-.06-.38-.17-.18-.21-.16-.52,.05-.71l10.43-9.14c.21-.18,.52-.16,.71,.05,.18,.21,.16,.52-.05,.71l-10.43,9.14c-.1,.08-.21,.12-.33,.12Z" fill="#002346"></path>
    <path d="M669.69,371.44c-.14,0-.28-.06-.38-.17-.18-.21-.16-.52,.05-.71l8.48-7.45c.21-.18,.52-.16,.71,.05,.18,.21,.16,.52-.05,.71l-8.48,7.45c-.1,.08-.21,.12-.33,.12Z" fill="#002346"></path>
    <path d="M636.38,338.54c-.25,0-.47-.19-.5-.44-6.25-51.56-2.54-62.3-2.38-62.73,.1-.26,.38-.39,.64-.29,.26,.1,.39,.38,.29,.64h0c-.04,.11-3.76,11.15,2.43,62.26,.03,.27-.16,.52-.44,.56-.02,0-.04,0-.06,0Z" fill="#002346"></path>
    <path d="M671.38,336.54c-.25,0-.47-.19-.5-.44-6.25-51.56-2.54-62.3-2.38-62.73,.1-.26,.39-.39,.64-.29,.26,.1,.39,.38,.29,.64h0c-.04,.11-3.76,11.15,2.43,62.26,.03,.27-.16,.52-.44,.56-.02,0-.04,0-.06,0Z" fill="#002346"></path>
    <g>
      <circle cx="636.69" cy="339.06" r="3.5" fill="#fff"></circle>
      <path d="M636.69,343.06c-2.21,0-4-1.79-4-4s1.79-4,4-4,4,1.79,4,4-1.79,4-4,4Zm0-7c-1.65,0-3,1.35-3,3s1.35,3,3,3,3-1.35,3-3-1.35-3-3-3Z" fill="#002346"></path>
    </g>
    <g>
      <circle cx="671.69" cy="339.06" r="3.5" fill="#fff"></circle>
      <path d="M671.69,343.06c-2.21,0-4-1.79-4-4s1.79-4,4-4,4,1.79,4,4-1.79,4-4,4Zm0-7c-1.65,0-3,1.35-3,3s1.35,3,3,3,3-1.35,3-3-1.35-3-3-3Z" fill="#002346"></path>
    </g>
    <path d="M549,580.7c-6.83,0-11.23-2.47-11.3-2.51-.24-.14-.32-.44-.18-.68,.14-.24,.44-.32,.68-.18,.12,.07,12.27,6.84,27.52-2.78,.23-.15,.54-.08,.69,.16,.15,.23,.08,.54-.16,.69-6.5,4.1-12.47,5.31-17.25,5.31Z" fill="#002346"></path>
    <path d="M558.03,579.25c-.21,0-.4-.13-.47-.34-2.71-7.8-9.15-8.63-9.21-8.63-.27-.03-.47-.28-.44-.55s.28-.47,.55-.44c.29,.03,7.13,.91,10.04,9.3,.09,.26-.05,.55-.31,.64-.05,.02-.11,.03-.16,.03Z" fill="#002346"></path>
    <path d="M562.77,574.77c-.23,0-.44-.17-.49-.4-1.34-6.88-7.36-8-7.42-8.01-.27-.05-.45-.31-.41-.58,.05-.27,.31-.46,.58-.41,.07,.01,6.76,1.26,8.23,8.81,.05,.27-.12,.53-.4,.59-.03,0-.06,0-.1,0Z" fill="#002346"></path>
    <path d="M566.77,570.77c-.23,0-.44-.17-.49-.4-1.34-6.88-7.36-8-7.42-8.01-.27-.05-.45-.31-.41-.58,.05-.27,.31-.46,.58-.41,.07,.01,6.76,1.26,8.23,8.81,.05,.27-.12,.53-.4,.59-.03,0-.06,0-.1,0Z" fill="#002346"></path>
    <path d="M543.44,616.26c-8.04,0-14.15-4.32-14.25-4.39-.22-.16-.27-.47-.11-.7,.16-.22,.47-.27,.7-.11,.66,.48,16.39,11.56,30.48-3.87l17.74-20.66c.18-.21,.5-.23,.71-.05,.21,.18,.23,.5,.05,.71l-17.75,20.67c-5.91,6.47-12.17,8.41-17.56,8.41Z" fill="#002346"></path>
    <path d="M555.59,612.44c-.16,0-.32-.08-.42-.22-5.9-8.82-18.65-9.97-18.78-9.98-.27-.02-.48-.26-.46-.54,.02-.28,.26-.47,.54-.46,.54,.04,13.36,1.21,19.53,10.42,.15,.23,.09,.54-.14,.69-.09,.06-.18,.08-.28,.08Z" fill="#002346"></path>
    <path d="M556.33,602.24c-.18,0-.35-.1-.44-.27-4.12-7.87-12.02-6.22-12.35-6.14-.27,.06-.54-.11-.6-.38-.06-.27,.11-.54,.38-.6,.09-.02,8.97-1.91,13.45,6.66,.13,.25,.03,.55-.21,.68-.07,.04-.15,.06-.23,.06Z" fill="#002346"></path>
    <path d="M562.33,598.24c-.18,0-.35-.1-.44-.27-4.12-7.87-12.02-6.22-12.35-6.14-.27,.06-.54-.11-.6-.38-.06-.27,.11-.54,.38-.6,.09-.02,8.97-1.91,13.45,6.66,.13,.25,.03,.55-.21,.68-.07,.04-.15,.06-.23,.06Z" fill="#002346"></path>
    <path d="M568.33,594.24c-.18,0-.35-.1-.44-.27-4.12-7.87-12.02-6.22-12.35-6.14-.27,.06-.54-.11-.6-.38-.06-.27,.11-.54,.38-.6,.09-.02,8.97-1.91,13.45,6.66,.13,.25,.03,.55-.21,.68-.07,.04-.15,.06-.23,.06Z" fill="#002346"></path>
    <g>
      <path d="M444.4,368.86h45.85l33-19.23c.16-.1,.1-.35-.09-.35h-39.43l-39.4,19.23c-.18,.09-.12,.35,.08,.35Z" fill="#fff"></path>
      <path d="M490.39,369.36h-45.98c-.32,0-.59-.22-.67-.53s.08-.63,.37-.77l39.5-19.28h39.55c.31,0,.58,.2,.66,.51s-.04,.61-.32,.77l-33.11,19.3Zm-44.62-1h44.35l31.88-18.58h-38.15l-38.07,18.58Z" fill="#002346"></path>
    </g>
    <path d="M335.01,308.66h-54.57c-.28,0-.5-.22-.5-.5s.22-.5,.5-.5h54.57c.28,0,.5,.22,.5,.5s-.22,.5-.5,.5Z" fill="#002346"></path>
    <path d="M349.19,321.66h-68.75c-.28,0-.5-.22-.5-.5s.22-.5,.5-.5h68.75c.28,0,.5,.22,.5,.5s-.22,.5-.5,.5Z" fill="#002346"></path>
    <path d="M365.19,334.66h-84.75c-.28,0-.5-.22-.5-.5s.22-.5,.5-.5h84.75c.28,0,.5,.22,.5,.5s-.22,.5-.5,.5Z" fill="#002346"></path>
    <path d="M403.19,347.66h-122.75c-.28,0-.5-.22-.5-.5s.22-.5,.5-.5h122.75c.28,0,.5,.22,.5,.5s-.22,.5-.5,.5Z" fill="#002346"></path>
    <path d="M275.44,415.06h-122.75c-.28,0-.5-.22-.5-.5s.22-.5,.5-.5h122.75c.28,0,.5,.22,.5,.5s-.22,.5-.5,.5Z" fill="#002346"></path>
    <path d="M246.19,444.06h-93.5c-.28,0-.5-.22-.5-.5s.22-.5,.5-.5h93.5c.28,0,.5,.22,.5,.5s-.22,.5-.5,.5Z" fill="#002346"></path>
    <path d="M309.19,470.06H152.69c-.28,0-.5-.22-.5-.5s.22-.5,.5-.5h156.5c.28,0,.5,.22,.5,.5s-.22,.5-.5,.5Z" fill="#002346"></path>
    <path d="M350.19,444.06h-71.5c-.28,0-.5-.22-.5-.5s.22-.5,.5-.5h71.5c.28,0,.5,.22,.5,.5s-.22,.5-.5,.5Z" fill="#002346"></path>
    <path d="M441.19,444.06h-63.5c-.28,0-.5-.22-.5-.5s.22-.5,.5-.5h63.5c.28,0,.5,.22,.5,.5s-.22,.5-.5,.5Z" fill="#002346"></path>
    <path d="M377.19,415.06h-84.5c-.28,0-.5-.22-.5-.5s.22-.5,.5-.5h84.5c.28,0,.5,.22,.5,.5s-.22,.5-.5,.5Z" fill="#002346"></path>
    <path d="M441.19,415.06h-30.5c-.28,0-.5-.22-.5-.5s.22-.5,.5-.5h30.5c.28,0,.5,.22,.5,.5s-.22,.5-.5,.5Z" fill="#002346"></path>
    <path d="M370.19,470.06h-30.5c-.28,0-.5-.22-.5-.5s.22-.5,.5-.5h30.5c.28,0,.5,.22,.5,.5s-.22,.5-.5,.5Z" fill="#002346"></path>
    <path d="M441.19,527.7h-32.5c-.28,0-.5-.22-.5-.5s.22-.5,.5-.5h32.5c.28,0,.5,.22,.5,.5s-.22,.5-.5,.5Z" fill="#002346"></path>
    <path d="M375.19,500.06h-55.5c-.28,0-.5-.22-.5-.5s.22-.5,.5-.5h55.5c.28,0,.5,.22,.5,.5s-.22,.5-.5,.5Z" fill="#002346"></path>
    <path d="M441.19,500.06h-50.5c-.28,0-.5-.22-.5-.5s.22-.5,.5-.5h50.5c.28,0,.5,.22,.5,.5s-.22,.5-.5,.5Z" fill="#002346"></path>
    <path d="M441.19,470.06h-39.5c-.28,0-.5-.22-.5-.5s.22-.5,.5-.5h39.5c.28,0,.5,.22,.5,.5s-.22,.5-.5,.5Z" fill="#002346"></path>
    <path d="M225.91,499.9h-73.22c-.28,0-.5-.22-.5-.5s.22-.5,.5-.5h73.22c.28,0,.5,.22,.5,.5s-.22,.5-.5,.5Z" fill="#002346"></path>
    <g>
      <g>
        <rect x="75.4" y="451.52" width="103.05" height="64.41" rx="4.77" ry="4.77" fill="#314152"></rect>
        <path d="M173.68,516.43H80.17c-2.91,0-5.27-2.37-5.27-5.27v-54.86c0-2.91,2.37-5.27,5.27-5.27h93.5c2.91,0,5.27,2.37,5.27,5.27v54.86c0,2.91-2.37,5.27-5.27,5.27Zm-93.5-64.41c-2.36,0-4.27,1.92-4.27,4.27v54.86c0,2.36,1.92,4.27,4.27,4.27h93.5c2.36,0,4.27-1.92,4.27-4.27v-54.86c0-2.36-1.92-4.27-4.27-4.27H80.17Z" fill="#002346"></path>
      </g>
      <path d="M113.14,499.9c-.12,0-.24-.04-.34-.13l-16.97-15.67c-.1-.09-.16-.23-.16-.37s.06-.27,.16-.37l16.97-15.68c.2-.19,.52-.18,.71,.03,.19,.2,.17,.52-.03,.71l-16.57,15.32,16.57,15.3c.2,.19,.22,.5,.03,.71-.1,.11-.23,.16-.37,.16Z" fill="#002346"></path>
      <path d="M142.17,499.9c-.13,0-.27-.05-.37-.16-.19-.2-.17-.52,.03-.71l16.57-15.32-16.57-15.3c-.2-.19-.22-.5-.03-.71,.19-.2,.5-.22,.71-.03l16.97,15.67c.1,.09,.16,.23,.16,.37s-.06,.27-.16,.37l-16.97,15.68c-.1,.09-.22,.13-.34,.13Z" fill="#002346"></path>
      <path d="M119.99,498.64c-.08,0-.16-.02-.23-.06-.25-.13-.34-.43-.21-.67l14.98-28.82c.13-.25,.43-.34,.67-.21,.25,.13,.34,.43,.21,.67l-14.98,28.82c-.09,.17-.26,.27-.44,.27Z" fill="#002346"></path>
    </g>
    <g>
      <g>
        <rect x="295.4" y="95.52" width="103.05" height="64.41" rx="7.44" ry="7.44" fill="#fc5c7d"></rect>
        <path d="M391.02,160.43h-88.18c-4.38,0-7.94-3.56-7.94-7.94v-49.54c0-4.38,3.56-7.94,7.94-7.94h88.18c4.38,0,7.94,3.56,7.94,7.94v49.54c0,4.38-3.56,7.94-7.94,7.94Zm-88.18-64.41c-3.82,0-6.94,3.11-6.94,6.94v49.54c0,3.82,3.11,6.94,6.94,6.94h88.18c3.82,0,6.94-3.11,6.94-6.94v-49.54c0-3.82-3.11-6.94-6.94-6.94h-88.18Z" fill="#002346"></path>
      </g>
      <path d="M333.14,143.9c-.12,0-.24-.04-.34-.13l-16.97-15.67c-.1-.09-.16-.23-.16-.37s.06-.27,.16-.37l16.97-15.68c.2-.19,.52-.18,.71,.03,.19,.2,.17,.52-.03,.71l-16.57,15.32,16.57,15.3c.2,.19,.22,.5,.03,.71-.1,.11-.23,.16-.37,.16Z" fill="#002346"></path>
      <path d="M362.17,143.9c-.13,0-.27-.05-.37-.16-.19-.2-.17-.52,.03-.71l16.57-15.32-16.57-15.3c-.2-.19-.22-.5-.03-.71,.19-.2,.5-.22,.71-.03l16.97,15.67c.1,.09,.16,.23,.16,.37s-.06,.27-.16,.37l-16.97,15.68c-.1,.09-.22,.13-.34,.13Z" fill="#002346"></path>
      <path d="M339.99,142.64c-.08,0-.16-.02-.23-.06-.25-.13-.34-.43-.21-.67l14.98-28.82c.13-.25,.43-.34,.67-.21,.25,.13,.34,.43,.21,.67l-14.98,28.82c-.09,.17-.26,.27-.44,.27Z" fill="#002346"></path>
    </g>
    <path d="M278.69,527.59h-124.79c-.28,0-.5-.22-.5-.5s.22-.5,.5-.5h124.79c.28,0,.5,.22,.5,.5s-.22,.5-.5,.5Z" fill="#002346"></path>
    <path d="M380.37,527.59h-59.04c-.28,0-.5-.22-.5-.5s.22-.5,.5-.5h59.04c.28,0,.5,.22,.5,.5s-.22,.5-.5,.5Z" fill="#002346"></path>
    <g>
      <path d="M196.61,207.27h-55.81c-.28,0-.5-.22-.5-.5s.22-.5,.5-.5h55.81c.28,0,.5,.22,.5,.5s-.22,.5-.5,.5Z" fill="#002346"></path>
      <path d="M210.61,220.27h-69.81c-.28,0-.5-.22-.5-.5s.22-.5,.5-.5h69.81c.28,0,.5,.22,.5,.5s-.22,.5-.5,.5Z" fill="#002346"></path>
    </g>
    <g>
      <path d="M533.61,144.27h-55.81c-.28,0-.5-.22-.5-.5s.22-.5,.5-.5h55.81c.28,0,.5,.22,.5,.5s-.22,.5-.5,.5Z" fill="#002346"></path>
      <path d="M547.61,157.27h-69.81c-.28,0-.5-.22-.5-.5s.22-.5,.5-.5h69.81c.28,0,.5,.22,.5,.5s-.22,.5-.5,.5Z" fill="#002346"></path>
    </g>
    <path d="M227.61,233.27h-86.81c-.28,0-.5-.22-.5-.5s.22-.5,.5-.5h86.81c.28,0,.5,.22,.5,.5s-.22,.5-.5,.5Z" fill="#002346"></path>
    <path d="M192.85,301.87H106.97c-.28,0-.5-.22-.5-.5s.22-.5,.5-.5h85.88c.28,0,.5,.22,.5,.5s-.22,.5-.5,.5Z" fill="#002346"></path>
    <path d="M191.85,326.87H105.97c-.28,0-.5-.22-.5-.5s.22-.5,.5-.5h85.88c.28,0,.5,.22,.5,.5s-.22,.5-.5,.5Z" fill="#002346"></path>
    <path d="M219.85,314.87H79.97c-.28,0-.5-.22-.5-.5s.22-.5,.5-.5H219.85c.28,0,.5,.22,.5,.5s-.22,.5-.5,.5Z" fill="#002346"></path>
    <g>
      <ellipse cx="642.88" cy="219.71" rx="12.5" ry="20.5" transform="translate(232.76 761.35) rotate(-71.74)" fill="#002346"></ellipse>
      <path d="M648.63,233.7c-3.09,0-6.45-.53-9.83-1.64-11-3.63-18.11-12.12-15.87-18.93,2.25-6.81,13.02-9.39,24.02-5.76,11,3.63,18.11,12.12,15.87,18.93-1.56,4.72-7.21,7.41-14.19,7.41Zm-11.58-26.99c-6.52,0-11.75,2.43-13.17,6.74-2.07,6.28,4.76,14.21,15.23,17.66,10.47,3.45,20.68,1.15,22.75-5.13,2.07-6.28-4.76-14.21-15.23-17.66-3.3-1.09-6.58-1.61-9.59-1.61Z" fill="#002346"></path>
    </g>
    <g>
      <ellipse cx="662.59" cy="230.92" rx="6.44" ry="8.05" fill="#f2b3c1"></ellipse>
      <path d="M662.59,239.46c-3.82,0-6.93-3.83-6.93-8.54s3.11-8.54,6.93-8.54,6.93,3.83,6.93,8.54-3.11,8.54-6.93,8.54Zm0-16.1c-3.28,0-5.95,3.39-5.95,7.56s2.67,7.56,5.95,7.56,5.95-3.39,5.95-7.56-2.67-7.56-5.95-7.56Z" fill="#002346"></path>
    </g>
  </g>
  <g>
    <rect x="70.04" y="188.52" width="57.97" height="57.97" rx="3.25" ry="3.25" fill="#fff"></rect>
    <path d="M124.76,246.99h-51.47c-2.07,0-3.75-1.68-3.75-3.75v-51.47c0-2.07,1.68-3.75,3.75-3.75h51.47c2.07,0,3.75,1.68,3.75,3.75v51.47c0,2.07-1.68,3.75-3.75,3.75Zm-51.47-57.97c-1.52,0-2.75,1.23-2.75,2.75v51.47c0,1.52,1.23,2.75,2.75,2.75h51.47c1.52,0,2.75-1.23,2.75-2.75v-51.47c0-1.52-1.23-2.75-2.75-2.75h-51.47Z" fill="#002346"></path>
  </g>
</svg>
